# File created by Blade
# Date/Time:  Wed Apr 08 16:19:59 2015
# Frame Rate: 120.000 fps
#------------------------------------------------------
:FULLY-SPECIFIED
:DEGREES
906
root -22.597687 3.841385 0.658484 298.987008 -82.084502 -393.443595
Spine 5.538756 -6.417947 -7.761228
Head 19.538636 -5.694233 -0.961800
LeftShoulder -3.041126 15.509318 23.098457
LeftArm 105.236534 -23.157510 -135.926081
LeftForeArm -7.209642 -0.000000 146.131173
LeftHand 21.321503 0.000000 48.846028
LeftHandThumb1 -26.253704 0.000000 33.147579
RightShoulder -4.217504 35.658769 -30.104287
RightArm 72.227536 54.862676 121.236327
RightForeArm 8.191617 0.000000 148.314096
RightHand 29.538527 -0.000000 -67.983270
RightHandThumb1 -24.326973 -0.000000 -32.862282
LeftUpLeg -55.563633 -6.596495 10.691060
LeftLeg 133.198303 -0.000000 -0.000000
LeftFoot 15.629051 -22.097393 -15.726165
LeftToeBase -48.879111 -0.000000 0.000000
RightUpLeg -52.670206 -3.033850 -20.883221
RightLeg 136.391223 -0.000000 -0.000000
RightFoot 7.577755 6.874116 6.540872
RightToeBase -32.246097 -0.000000 0.000000
907
root -22.599909 3.841025 0.661520 298.925440 -82.034316 -393.437978
Spine 5.626567 -6.455274 -7.819327
Head 19.548354 -5.636646 -0.919613
LeftShoulder -3.027520 15.658325 22.832876
LeftArm 104.587851 -23.007241 -135.791543
LeftForeArm -7.088147 -0.000000 146.121960
LeftHand 21.402543 -0.000000 48.526721
LeftHandThumb1 -26.253704 0.000000 33.147579
RightShoulder -4.194130 35.655329 -30.095564
RightArm 72.325828 54.868035 121.306194
RightForeArm 8.206335 -0.000000 148.295914
RightHand 29.528421 0.000000 -68.064950
RightHandThumb1 -24.326973 -0.000000 -32.862282
LeftUpLeg -55.499142 -6.616203 10.648475
LeftLeg 133.220010 -0.000000 -0.000000
LeftFoot 15.536097 -22.139483 -15.722438
LeftToeBase -48.612058 -0.000000 0.000000
RightUpLeg -52.614395 -3.051828 -20.950165
RightLeg 136.400335 -0.000000 -0.000000
RightFoot 7.602098 6.886330 6.574373
RightToeBase -32.250535 -0.000000 0.000000
908
root -22.600827 3.840543 0.663739 298.797868 -81.977261 -393.365724
Spine 5.705065 -6.416515 -7.875747
Head 19.577474 -5.654027 -0.917808
LeftShoulder -3.017081 16.055066 22.610930
LeftArm 103.990192 -22.598354 -135.804105
LeftForeArm -7.032053 -0.000000 146.095094
LeftHand 21.548885 -0.000000 48.203161
LeftHandThumb1 -26.253704 0.000000 33.147579
RightShoulder -4.236356 35.634744 -30.153402
RightArm 72.373630 54.906509 121.363889
RightForeArm 8.183143 -0.000000 148.298521
RightHand 29.582547 0.000000 -67.970900
RightHandThumb1 -24.326973 -0.000000 -32.862282
LeftUpLeg -55.433482 -6.630382 10.592330
LeftLeg 133.215289 -0.000000 -0.000000
LeftFoot 15.492540 -22.166549 -15.724399
LeftToeBase -48.531967 -0.000000 0.000000
RightUpLeg -52.557579 -3.064704 -21.023546
RightLeg 136.408646 -0.000000 -0.000000
RightFoot 7.604449 6.900656 6.546497
RightToeBase -32.252298 -0.000000 0.000000
909
root -22.605741 3.840450 0.666378 298.711066 -81.925237 -393.305962
Spine 5.752071 -6.456418 -7.927468
Head 19.581148 -5.599224 -0.921276
LeftShoulder -3.055949 16.016541 22.280928
LeftArm 103.188448 -22.492227 -135.554114
LeftForeArm -6.934047 -0.000000 146.047560
LeftHand 21.646097 -0.000000 47.769976
LeftHandThumb1 -26.253704 0.000000 33.147579
RightShoulder -4.205050 35.602026 -30.169233
RightArm 72.486605 54.911910 121.460236
RightForeArm 8.192926 0.000000 148.296280
RightHand 29.549140 -0.000000 -67.981830
RightHandThumb1 -24.326973 -0.000000 -32.862282
LeftUpLeg -55.410418 -6.631365 10.546743
LeftLeg 133.225190 -0.000000 -0.000000
LeftFoot 15.483612 -22.180063 -15.725914
LeftToeBase -48.529238 -0.000000 0.000000
RightUpLeg -52.534230 -3.093246 -21.100797
RightLeg 136.429233 -0.000000 -0.000000
RightFoot 7.606672 6.912928 6.524690
RightToeBase -32.274898 -0.000000 0.000000
910
root -22.608437 3.840359 0.668934 298.601634 -81.879660 -393.240797
Spine 5.826426 -6.488626 -7.984668
Head 19.570538 -5.547335 -0.891560
LeftShoulder -2.989657 16.219125 22.108366
LeftArm 102.677918 -22.324598 -135.869340
LeftForeArm -7.643142 0.000000 146.223704
LeftHand 21.525447 -0.000000 47.058918
LeftHandThumb1 -26.253704 0.000000 33.147579
RightShoulder -4.182724 35.607910 -30.181263
RightArm 72.577252 54.948333 121.559298
RightForeArm 8.199504 -0.000000 148.279788
RightHand 29.569125 -0.000000 -67.968946
RightHandThumb1 -24.326973 -0.000000 -32.862282
LeftUpLeg -55.363061 -6.629215 10.504722
LeftLeg 133.230506 -0.000000 -0.000000
LeftFoot 15.481820 -22.181558 -15.774616
LeftToeBase -48.545102 -0.000000 0.000000
RightUpLeg -52.491600 -3.109329 -21.169659
RightLeg 136.447599 -0.000000 -0.000000
RightFoot 7.603662 6.931823 6.530548
RightToeBase -32.254550 -0.000000 0.000000
911
root -22.615204 3.839987 0.669905 298.426167 -81.823252 -393.082623
Spine 5.872836 -6.546059 -8.070888
Head 19.541233 -5.489479 -0.848006
LeftShoulder -3.008741 16.091144 21.837980
LeftArm 101.947033 -22.300052 -135.674966
LeftForeArm -7.736572 -0.000000 146.196281
LeftHand 21.781275 0.000000 46.464145
LeftHandThumb1 -26.253704 0.000000 33.147579
RightShoulder -4.134196 35.633332 -30.188286
RightArm 72.656577 55.010686 121.648944
RightForeArm 8.217724 -0.000000 148.260601
RightHand 29.570560 -0.000000 -67.967693
RightHandThumb1 -24.326973 -0.000000 -32.862282
LeftUpLeg -55.349277 -6.609749 10.457412
LeftLeg 133.243269 -0.000000 -0.000000
LeftFoot 15.469730 -22.210515 -15.717032
LeftToeBase -48.557489 -0.000000 0.000000
RightUpLeg -52.488931 -3.126567 -21.257248
RightLeg 136.481786 -0.000000 -0.000000
RightFoot 7.628971 6.986635 6.474863
RightToeBase -32.276182 -0.000000 0.000000
912
root -22.620901 3.840256 0.671806 298.201418 -81.774827 -392.874978
Spine 5.900715 -6.535481 -8.133711
Head 19.561616 -5.490545 -0.854565
LeftShoulder -3.044434 15.904825 21.479297
LeftArm 101.119987 -22.213755 -135.031935
LeftForeArm -6.938017 -0.000000 146.110245
LeftHand 21.492032 -0.000000 46.993398
LeftHandThumb1 -26.253704 0.000000 33.147579
RightShoulder -4.139858 35.607893 -30.256876
RightArm 72.734435 55.075383 121.776580
RightForeArm 8.210751 -0.000000 148.253881
RightHand 29.571846 0.000000 -67.982553
RightHandThumb1 -24.326973 -0.000000 -32.862282
LeftUpLeg -55.328662 -6.579080 10.406050
LeftLeg 133.256004 -0.000000 -0.000000
LeftFoot 15.472218 -22.221755 -15.740244
LeftToeBase -48.452095 -0.000000 0.000000
RightUpLeg -52.481913 -3.131344 -21.339065
RightLeg 136.513201 -0.000000 -0.000000
RightFoot 7.618849 7.019476 6.439807
RightToeBase -32.185614 -0.000000 0.000000
913
root -22.625067 3.840739 0.670799 298.100000 -81.750478 -392.811334
Spine 5.964959 -6.578988 -8.185464
Head 19.549970 -5.452089 -0.829271
LeftShoulder -2.959474 15.891202 21.328048
LeftArm 100.554907 -22.160636 -135.150376
LeftForeArm -7.463741 -0.000000 146.276060
LeftHand 21.552796 0.000000 46.562624
LeftHandThumb1 -26.253704 0.000000 33.147579
RightShoulder -4.092897 35.623059 -30.233356
RightArm 72.795314 55.105443 121.818804
RightForeArm 8.178677 0.000000 148.233357
RightHand 29.517032 -0.000000 -67.998796
RightHandThumb1 -24.326973 -0.000000 -32.862282
LeftUpLeg -55.284906 -6.559121 10.402754
LeftLeg 133.262750 -0.000000 -0.000000
LeftFoot 15.474533 -22.281344 -15.779498
LeftToeBase -48.578000 -0.000000 0.000000
RightUpLeg -52.447001 -3.125731 -21.374396
RightLeg 136.531514 -0.000000 -0.000000
RightFoot 7.625582 7.019058 6.485778
RightToeBase -32.234957 -0.000000 0.000000
914
root -22.625272 3.840884 0.670204 297.855255 -81.717171 -392.642510
Spine 6.068581 -6.504021 -8.240776
Head 19.564637 -5.517905 -0.848020
LeftShoulder -2.838333 16.534040 21.312124
LeftArm 100.349000 -21.566828 -135.760060
LeftForeArm -8.492283 0.000000 146.413917
LeftHand 22.435090 -0.000000 46.305083
LeftHandThumb1 -26.253704 0.000000 33.147579
RightShoulder -4.150124 35.581356 -30.267774
RightArm 72.882549 55.127554 121.907439
RightForeArm 8.065397 0.000000 148.188980
RightHand 29.609823 0.000000 -67.913911
RightHandThumb1 -24.326973 -0.000000 -32.862282
LeftUpLeg -55.196673 -6.538298 10.366117
LeftLeg 133.249116 -0.000000 -0.000000
LeftFoot 15.505503 -22.278485 -15.829821
LeftToeBase -48.617637 -0.000000 0.000000
RightUpLeg -52.371177 -3.106955 -21.418984
RightLeg 136.539849 -0.000000 -0.000000
RightFoot 7.586184 7.002169 6.511149
RightToeBase -32.253120 -0.000000 0.000000
915
root -22.628935 3.841122 0.669302 297.689862 -81.680337 -392.530835
Spine 6.140991 -6.512939 -8.306011
Head 19.588416 -5.500441 -0.844091
LeftShoulder -2.767051 16.742833 21.164298
LeftArm 99.910203 -21.270802 -135.722153
LeftForeArm -7.939710 -0.000000 146.475255
LeftHand 22.008607 0.000000 46.890366
LeftHandThumb1 -26.253704 0.000000 33.147579
RightShoulder -4.136350 35.560540 -30.279770
RightArm 72.910859 55.134570 121.927221
RightForeArm 8.107392 -0.000000 148.202643
RightHand 29.546210 -0.000000 -68.026951
RightHandThumb1 -24.326973 -0.000000 -32.862282
LeftUpLeg -55.143042 -6.517894 10.342461
LeftLeg 133.253165 -0.000000 -0.000000
LeftFoot 15.527823 -22.305946 -15.864545
LeftToeBase -48.619011 -0.000000 0.000000
RightUpLeg -52.324425 -3.098010 -21.472508
RightLeg 136.557014 -0.000000 -0.000000
RightFoot 7.601003 7.009408 6.537046
RightToeBase -32.199498 -0.000000 0.000000
916
root -22.634153 3.840759 0.668229 297.545237 -81.652813 -392.433177
Spine 6.220436 -6.535857 -8.367934
Head 19.559576 -5.461326 -0.817157
LeftShoulder -2.696579 16.815655 21.037940
LeftArm 99.489498 -21.026935 -135.794914
LeftForeArm -7.767025 0.000000 146.524809
LeftHand 22.017355 0.000000 47.232592
LeftHandThumb1 -26.253704 0.000000 33.147579
RightShoulder -4.126634 35.638721 -30.320262
RightArm 72.899480 55.235465 121.977857
RightForeArm 8.125075 -0.000000 148.180429
RightHand 29.570885 0.000000 -68.110872
RightHandThumb1 -24.326973 -0.000000 -32.862282
LeftUpLeg -55.103992 -6.493288 10.330091
LeftLeg 133.266988 -0.000000 -0.000000
LeftFoot 15.530816 -22.336981 -15.856973
LeftToeBase -48.610443 -0.000000 0.000000
RightUpLeg -52.290670 -3.092135 -21.517833
RightLeg 136.578077 -0.000000 -0.000000
RightFoot 7.605499 7.035592 6.500637
RightToeBase -32.187909 -0.000000 0.000000
917
root -22.639171 3.840730 0.669778 297.269899 -81.596916 -392.200341
Spine 6.293779 -6.537405 -8.453134
Head 19.521152 -5.428872 -0.828260
LeftShoulder -2.587928 16.778607 20.895865
LeftArm 99.118625 -20.854359 -135.961680
LeftForeArm -7.963984 -0.000000 146.575296
LeftHand 22.117695 -0.000000 47.276581
LeftHandThumb1 -26.253704 0.000000 33.147579
RightShoulder -4.125806 35.656529 -30.348938
RightArm 72.947491 55.278654 122.033627
RightForeArm 8.117238 -0.000000 148.165344
RightHand 29.547719 -0.000000 -68.051671
RightHandThumb1 -24.326973 -0.000000 -32.862282
LeftUpLeg -55.063344 -6.465190 10.268388
LeftLeg 133.275261 -0.000000 -0.000000
LeftFoot 15.565405 -22.353820 -15.880990
LeftToeBase -48.726550 -0.000000 0.000000
RightUpLeg -52.259345 -3.091676 -21.613468
RightLeg 136.599066 -0.000000 -0.000000
RightFoot 7.603911 7.048507 6.521298
RightToeBase -32.151183 -0.000000 0.000000
918
root -22.642899 3.840332 0.669114 297.232486 -81.572196 -392.221346
Spine 6.386503 -6.597578 -8.503871
Head 19.489984 -5.336096 -0.802908
LeftShoulder -2.458763 16.862044 20.819930
LeftArm 98.891327 -20.658809 -136.332834
LeftForeArm -8.233684 -0.000000 146.693351
LeftHand 22.194343 0.000000 47.150089
LeftHandThumb1 -26.253704 0.000000 33.147579
RightShoulder -4.065683 35.688585 -30.314064
RightArm 73.068090 55.319279 122.127377
RightForeArm 8.056355 -0.000000 148.108122
RightHand 29.621631 -0.000000 -68.066665
RightHandThumb1 -24.326973 -0.000000 -32.862282
LeftUpLeg -55.018140 -6.456621 10.258158
LeftLeg 133.285317 -0.000000 -0.000000
LeftFoot 15.584024 -22.353988 -15.886718
LeftToeBase -48.768000 -0.000000 0.000000
RightUpLeg -52.200410 -3.091342 -21.653500
RightLeg 136.608300 -0.000000 -0.000000
RightFoot 7.624968 7.088904 6.501256
RightToeBase -32.236369 -0.000000 0.000000
